<?xml version="1.0" standalone="no"?>
<!DOCTYPE svg PUBLIC "-//W3C//DTD SVG 20010904//EN"
 "http://www.w3.org/TR/2001/REC-SVG-20010904/DTD/svg10.dtd">
<svg version="1.0" xmlns="http://www.w3.org/2000/svg"
 width="512.000000pt" height="512.000000pt" viewBox="0 0 512.000000 512.000000"
 preserveAspectRatio="xMidYMid meet">

<g transform="translate(0.000000,512.000000) scale(0.100000,-0.100000)"
fill="#000000" stroke="none">
<path d="M1200 4471 c-63 -19 -122 -66 -148 -117 -19 -36 -732 -3307 -732
-3354 0 -51 27 -116 59 -144 32 -29 26 -36 -29 -36 -56 0 -85 -20 -96 -66 -10
-41 7 -77 46 -96 33 -17 167 -18 2380 -18 2213 0 2347 1 2380 18 56 28 66 96
20 142 -15 15 -34 20 -77 20 l-58 0 3 1132 c1 623 0 1143 -3 1156 -10 41 -61
62 -147 62 -47 0 -78 4 -78 10 0 6 34 145 75 310 41 165 75 314 75 332 0 85
-46 170 -117 217 -61 41 -404 126 -466 116 -53 -9 -132 -51 -162 -87 l-23 -28
-45 20 c-25 11 -122 38 -217 61 -155 36 -177 39 -222 30 -64 -14 -84 -25 -134
-73 -41 -40 -42 -40 -72 -24 -17 9 -115 37 -217 62 -172 42 -189 45 -237 34
-29 -6 -72 -22 -95 -36 -83 -49 -92 -71 -206 -525 l-103 -414 -217 -5 -217 -5
-27 -27 c-38 -38 -37 -92 1 -124 l27 -24 1325 0 1324 0 0 -1048 c0 -1163 5
-1078 -66 -1108 -50 -21 -2828 -21 -2879 0 -69 29 -65 -26 -65 1006 l0 932
146 666 c111 508 145 678 142 714 -7 68 -52 136 -108 165 -27 14 -171 50 -367
93 -336 73 -333 73 -373 61z m374 -246 c196 -43 282 -66 290 -77 7 -12 -84
-445 -348 -1650 -197 -898 -363 -1639 -368 -1645 -6 -7 -18 -13 -27 -13 -23 0
-598 127 -611 135 -5 3 -10 16 -10 28 0 12 160 753 356 1647 250 1142 360
1629 371 1637 10 7 27 10 42 6 14 -4 152 -34 305 -68z m1599 -290 c132 -31
160 -41 177 -62 11 -14 20 -34 20 -45 0 -15 -105 -445 -151 -620 l-10 -38
-234 0 c-129 0 -235 3 -235 8 1 31 191 756 201 768 15 19 49 34 64 30 6 -2 81
-20 168 -41z m666 -1 c163 -39 191 -54 191 -101 -1 -16 -36 -170 -78 -343
l-78 -315 -237 -3 c-187 -2 -236 0 -232 10 2 7 43 171 90 363 47 193 90 363
96 378 13 30 55 58 79 52 8 -2 84 -21 169 -41z m654 1 c132 -31 160 -41 177
-62 11 -14 20 -34 20 -45 0 -15 -105 -445 -151 -620 l-10 -38 -235 0 c-219 0
-235 1 -230 18 3 9 44 177 91 372 48 195 93 365 101 378 15 24 51 43 69 38 6
-2 81 -20 168 -41z"/>
<path d="M2645 2660 c-28 -11 -70 -39 -94 -62 -148 -141 -118 -382 59 -482
l55 -31 588 -3 589 -3 52 24 c106 49 171 138 183 249 12 115 -53 235 -158 293
l-54 30 -585 2 c-560 2 -587 1 -635 -17z"/>
<path d="M40 800 c-41 -41 -38 -108 6 -137 94 -61 198 54 119 132 -31 32 -96
34 -125 5z"/>
</g>
</svg>
