<?xml version="1.0" standalone="no"?>
<!DOCTYPE svg PUBLIC "-//W3C//DTD SVG 20010904//EN"
 "http://www.w3.org/TR/2001/REC-SVG-20010904/DTD/svg10.dtd">
<svg version="1.0" xmlns="http://www.w3.org/2000/svg"
 width="200.000000pt" height="200.000000pt" viewBox="0 0 200.000000 200.000000"
 preserveAspectRatio="xMidYMid meet">

<g transform="translate(0.000000,200.000000) scale(0.100000,-0.100000)"
fill="#000000" stroke="none">
<path d="M635 1848 c-55 -5 -149 -16 -210 -24 -182 -26 -309 -43 -327 -44 -17
0 -18 -16 -18 -194 l0 -194 25 -6 25 -6 2 -348 3 -347 496 -267 496 -266 382
95 381 95 0 449 c0 439 0 448 20 454 19 6 20 15 20 243 l0 238 -577 62 c-318
35 -587 64 -598 66 -11 1 -65 -2 -120 -6z m603 -78 c282 -33 515 -60 519 -60
3 0 4 -2 2 -4 -2 -2 -147 -26 -321 -52 l-317 -48 -443 68 c-575 88 -538 78
-393 100 111 16 157 22 365 45 41 4 75 9 76 10 0 0 231 -26 512 -59z m-610
-126 l472 -77 0 -204 c0 -160 -3 -204 -12 -201 -7 3 -226 62 -485 133 l-473
128 0 153 c0 118 3 152 13 149 6 -2 225 -38 485 -81z m1153 12 c-16 -18 -119
-32 -133 -18 -7 7 10 13 54 20 94 14 92 14 79 -2z m109 -186 c0 -104 -3 -190
-7 -190 -10 0 -683 -120 -711 -127 l-22 -5 2 203 3 204 33 3 c18 2 39 -1 46
-7 17 -14 158 7 173 27 22 27 217 54 225 31 6 -18 149 9 171 32 11 12 31 19
52 19 l35 0 0 -190z m-501 125 c-18 -18 -139 -33 -139 -17 0 6 21 14 48 17 26
4 52 8 57 10 6 2 19 4 30 4 17 1 18 -1 4 -14z m-744 -358 l440 -123 3 -443 c2
-375 0 -442 -12 -439 -7 2 -212 109 -455 238 l-441 235 0 328 c0 255 3 327 13
327 6 0 210 -55 452 -123z m1195 -440 l0 -423 -335 -83 c-184 -46 -344 -85
-355 -88 -20 -5 -20 0 -20 446 l0 451 28 0 c15 1 167 27 337 59 171 32 318 59
328 60 16 1 17 -25 17 -422z"/>
<path d="M1528 917 c-129 -26 -198 -44 -198 -52 0 -9 56 -1 198 28 108 22 199
42 201 43 1 2 1 7 0 11 -2 5 -93 -9 -201 -30z"/>
<path d="M1688 868 c-3 -31 -12 -56 -21 -63 -9 -6 -76 -24 -149 -39 -186 -38
-178 -35 -159 -64 9 -16 38 -11 234 35 105 24 109 26 123 59 8 18 14 54 14 79
0 37 -3 45 -19 45 -15 0 -19 -10 -23 -52z"/>
</g>
</svg>
