<?xml version="1.0" standalone="no"?>
<!DOCTYPE svg PUBLIC "-//W3C//DTD SVG 20010904//EN"
 "http://www.w3.org/TR/2001/REC-SVG-20010904/DTD/svg10.dtd">
<svg version="1.0" xmlns="http://www.w3.org/2000/svg"
 width="200.000000pt" height="200.000000pt" viewBox="0 0 200.000000 200.000000"
 preserveAspectRatio="xMidYMid meet">

<g transform="translate(0.000000,200.000000) scale(0.100000,-0.100000)"
fill="#000000" stroke="none">
<path d="M260 1754 c0 -45 0 -46 -30 -39 l-30 7 0 -50 c0 -45 -2 -50 -20 -45
-20 5 -20 0 -20 -611 0 -339 3 -616 8 -616 4 0 187 -41 407 -92 220 -50 411
-91 425 -91 14 0 205 41 425 91 220 51 403 92 408 92 4 0 7 277 7 616 0 611 0
616 -20 611 -18 -5 -20 0 -20 45 l0 50 -30 -7 c-30 -6 -30 -6 -30 34 0 23 -4
41 -10 41 -5 0 -168 -76 -361 -170 -194 -93 -360 -170 -369 -170 -9 0 -111 46
-226 101 -115 56 -278 134 -361 174 l-153 74 0 -45z m198 -95 c73 -34 131 -64
129 -66 -3 -3 -106 32 -244 83 -31 11 -43 21 -43 36 0 24 -12 28 158 -53z
m1242 52 c0 -14 -13 -24 -42 -35 -119 -44 -241 -86 -247 -85 -7 1 270 137 282
138 4 1 7 -8 7 -18z m-1260 -113 c98 -34 178 -64 176 -65 -3 -3 -358 77 -368
83 -12 8 -10 44 2 44 6 0 91 -28 190 -62z m1320 43 c0 -11 -4 -22 -8 -25 -11
-6 -365 -86 -368 -83 -5 4 339 124 359 126 11 1 17 -6 17 -18z m-1147 -152
l367 -83 0 -574 0 -574 -22 5 c-13 3 -185 42 -382 87 -198 45 -363 83 -368 86
-4 3 -8 262 -8 576 l0 570 23 -5 c12 -3 187 -42 390 -88z m1187 -478 c0 -314
-4 -572 -8 -575 -5 -3 -170 -41 -368 -86 -197 -45 -369 -84 -381 -87 l-23 -5
0 574 0 574 373 86 c204 47 380 86 390 87 16 1 17 -32 17 -568z"/>
<path d="M316 1364 c-4 -9 -5 -19 -2 -21 3 -4 210 -53 221 -53 2 0 5 9 8 20 3
11 3 20 1 20 -7 0 -187 40 -205 46 -10 3 -19 -2 -23 -12z"/>
<path d="M300 895 c0 -212 1 -385 3 -385 2 0 113 -25 246 -55 134 -30 247 -55
252 -55 5 0 9 160 9 385 0 212 -2 385 -4 385 -2 0 -113 25 -247 55 -134 30
-247 55 -251 55 -5 0 -8 -173 -8 -385z m258 288 l212 -47 0 -343 c0 -216 -4
-343 -10 -343 -15 0 -413 91 -422 96 -10 6 -11 684 0 684 4 0 103 -21 220 -47z"/>
<path d="M1433 1365 c-149 -34 -283 -65 -297 -69 -26 -6 -26 -8 -26 -96 0 -66
3 -90 13 -89 6 0 143 30 302 67 l290 67 3 93 c1 50 -1 92 -5 91 -4 0 -130 -29
-280 -64z m247 -34 c0 -39 -4 -51 -17 -55 -28 -8 -496 -116 -505 -116 -4 0 -8
22 -8 49 l0 49 113 26 c61 15 177 42 257 60 80 19 148 35 153 35 4 1 7 -21 7
-48z"/>
<path d="M1438 1034 l-35 -36 -39 17 c-21 9 -40 12 -42 8 -1 -4 -12 -26 -25
-48 -19 -33 -29 -41 -66 -48 l-43 -9 6 -41 c7 -40 5 -44 -36 -79 l-43 -36 23
-24 c27 -30 28 -44 2 -83 -11 -16 -20 -33 -20 -37 0 -4 18 -13 40 -19 39 -12
40 -13 40 -60 l0 -48 41 14 c23 8 43 15 45 15 2 0 14 -16 27 -35 l24 -35 40
35 c41 34 41 35 77 20 l36 -15 22 45 c12 25 29 47 37 49 9 2 28 7 44 10 25 6
27 10 27 54 0 43 3 49 40 75 l40 28 -25 33 -25 33 25 45 25 45 -40 12 c-39 12
-40 13 -40 58 0 50 1 49 -77 27 -17 -5 -25 0 -37 24 -23 44 -29 45 -68 6z m52
-59 c9 -17 19 -24 32 -20 10 3 27 8 39 11 18 5 20 3 14 -29 -7 -33 -5 -35 29
-47 l37 -12 -21 -34 -22 -34 22 -27 21 -27 -31 -24 c-24 -19 -30 -31 -30 -62
0 -39 -11 -50 -51 -50 -12 0 -26 -15 -39 -41 -16 -31 -25 -39 -38 -34 -39 16
-50 15 -79 -9 l-29 -25 -18 29 c-15 26 -20 28 -42 20 -39 -15 -44 -13 -44 25
0 31 -3 36 -30 41 -35 8 -34 4 -13 48 15 33 15 37 0 54 -24 26 -21 38 14 63
28 19 31 26 26 60 -5 37 -4 38 33 44 32 5 40 13 55 46 14 29 23 38 34 33 38
-16 57 -15 75 5 25 28 40 26 56 -4z"/>
</g>
</svg>
