<?xml version="1.0" standalone="no"?>
<!DOCTYPE svg PUBLIC "-//W3C//DTD SVG 20010904//EN"
 "http://www.w3.org/TR/2001/REC-SVG-20010904/DTD/svg10.dtd">
<svg version="1.0" xmlns="http://www.w3.org/2000/svg"
 width="200.000000pt" height="200.000000pt" viewBox="0 0 200.000000 200.000000"
 preserveAspectRatio="xMidYMid meet">

<g transform="translate(0.000000,200.000000) scale(0.100000,-0.100000)"
fill="#000000" stroke="none">
<path d="M72 1928 c-17 -17 -17 -1839 0 -1856 17 -17 1839 -17 1856 0 9 9 12
167 12 650 l0 638 -26 10 c-14 6 -63 10 -110 10 l-84 0 0 48 c0 58 -12 72 -62
72 -34 0 -38 3 -38 25 0 37 -35 100 -68 124 -47 33 -110 45 -162 31 -59 -16
-115 -73 -132 -133 -11 -44 -13 -46 -52 -49 l-41 -3 -3 -57 -3 -58 -79 0 -80
0 0 268 c0 195 -3 271 -12 280 -17 17 -899 17 -916 0z m868 -928 l0 -870 -405
0 -405 0 0 870 0 870 405 0 405 0 0 -870z m568 604 c30 -21 52 -66 52 -106 0
-46 9 -56 55 -60 35 -3 40 -6 43 -30 l3 -28 -220 0 -221 0 0 29 c0 28 3 30 42
33 43 3 43 3 49 49 8 57 21 81 55 108 33 26 109 28 142 5z m362 -884 l0 -590
-75 0 -75 0 0 184 0 185 28 3 c27 3 27 4 30 81 2 50 -1 84 -9 93 -9 11 -69 14
-335 14 -372 0 -344 8 -344 -102 0 -69 10 -88 47 -88 l23 0 0 -185 0 -185 -80
0 -80 0 0 590 0 590 435 0 435 0 0 -590z m-150 -130 l0 -30 -280 0 -280 0 0
30 0 30 280 0 280 0 0 -30z m-310 -275 l0 -185 -95 0 -95 0 0 185 0 185 95 0
95 0 0 -185z m250 0 l0 -185 -95 0 -95 0 0 185 0 185 95 0 95 0 0 -185z"/>
<path d="M197 1803 c-4 -3 -7 -41 -7 -84 0 -70 2 -80 21 -90 23 -12 143 -9
156 4 13 13 16 133 4 156 -10 19 -20 21 -90 21 -43 0 -81 -3 -84 -7z m113 -83
c0 -27 -3 -30 -30 -30 -27 0 -30 3 -30 30 0 27 3 30 30 30 27 0 30 -3 30 -30z"/>
<path d="M447 1803 c-4 -3 -7 -41 -7 -84 0 -70 2 -80 21 -90 23 -12 143 -9
156 4 13 13 16 133 4 156 -10 19 -20 21 -90 21 -43 0 -81 -3 -84 -7z m113 -83
c0 -27 -3 -30 -30 -30 -27 0 -30 3 -30 30 0 27 3 30 30 30 27 0 30 -3 30 -30z"/>
<path d="M697 1803 c-4 -3 -7 -41 -7 -84 0 -70 2 -80 21 -90 23 -12 143 -9
156 4 13 13 16 133 4 156 -10 19 -20 21 -90 21 -43 0 -81 -3 -84 -7z m113 -83
c0 -27 -3 -30 -30 -30 -27 0 -30 3 -30 30 0 27 3 30 30 30 27 0 30 -3 30 -30z"/>
<path d="M197 1553 c-4 -3 -7 -41 -7 -84 0 -70 2 -80 21 -90 23 -12 143 -9
156 4 13 13 16 133 4 156 -10 19 -20 21 -90 21 -43 0 -81 -3 -84 -7z m113 -83
c0 -27 -3 -30 -30 -30 -27 0 -30 3 -30 30 0 27 3 30 30 30 27 0 30 -3 30 -30z"/>
<path d="M447 1553 c-4 -3 -7 -41 -7 -84 0 -70 2 -80 21 -90 23 -12 143 -9
156 4 13 13 16 133 4 156 -10 19 -20 21 -90 21 -43 0 -81 -3 -84 -7z m113 -83
c0 -27 -3 -30 -30 -30 -27 0 -30 3 -30 30 0 27 3 30 30 30 27 0 30 -3 30 -30z"/>
<path d="M697 1553 c-4 -3 -7 -41 -7 -84 0 -70 2 -80 21 -90 23 -12 143 -9
156 4 13 13 16 133 4 156 -10 19 -20 21 -90 21 -43 0 -81 -3 -84 -7z m113 -83
c0 -27 -3 -30 -30 -30 -27 0 -30 3 -30 30 0 27 3 30 30 30 27 0 30 -3 30 -30z"/>
<path d="M197 1303 c-4 -3 -7 -41 -7 -84 0 -70 2 -80 21 -90 23 -12 143 -9
156 4 13 13 16 133 4 156 -10 19 -20 21 -90 21 -43 0 -81 -3 -84 -7z m113 -83
c0 -27 -3 -30 -30 -30 -27 0 -30 3 -30 30 0 27 3 30 30 30 27 0 30 -3 30 -30z"/>
<path d="M447 1303 c-4 -3 -7 -41 -7 -84 0 -70 2 -80 21 -90 23 -12 143 -9
156 4 13 13 16 133 4 156 -10 19 -20 21 -90 21 -43 0 -81 -3 -84 -7z m113 -83
c0 -27 -3 -30 -30 -30 -27 0 -30 3 -30 30 0 27 3 30 30 30 27 0 30 -3 30 -30z"/>
<path d="M697 1303 c-4 -3 -7 -41 -7 -84 0 -70 2 -80 21 -90 23 -12 143 -9
156 4 13 13 16 133 4 156 -10 19 -20 21 -90 21 -43 0 -81 -3 -84 -7z m113 -83
c0 -27 -3 -30 -30 -30 -27 0 -30 3 -30 30 0 27 3 30 30 30 27 0 30 -3 30 -30z"/>
<path d="M197 1053 c-4 -3 -7 -41 -7 -84 0 -70 2 -80 21 -90 23 -12 143 -9
156 4 13 13 16 133 4 156 -10 19 -20 21 -90 21 -43 0 -81 -3 -84 -7z m113 -83
c0 -27 -3 -30 -30 -30 -27 0 -30 3 -30 30 0 27 3 30 30 30 27 0 30 -3 30 -30z"/>
<path d="M447 1053 c-4 -3 -7 -41 -7 -84 0 -70 2 -80 21 -90 23 -12 143 -9
156 4 13 13 16 133 4 156 -10 19 -20 21 -90 21 -43 0 -81 -3 -84 -7z m113 -83
c0 -27 -3 -30 -30 -30 -27 0 -30 3 -30 30 0 27 3 30 30 30 27 0 30 -3 30 -30z"/>
<path d="M697 1053 c-4 -3 -7 -41 -7 -84 0 -70 2 -80 21 -90 23 -12 143 -9
156 4 13 13 16 133 4 156 -10 19 -20 21 -90 21 -43 0 -81 -3 -84 -7z m113 -83
c0 -27 -3 -30 -30 -30 -27 0 -30 3 -30 30 0 27 3 30 30 30 27 0 30 -3 30 -30z"/>
<path d="M197 803 c-4 -3 -7 -41 -7 -84 0 -70 2 -80 21 -90 23 -12 143 -9 156
4 13 13 16 133 4 156 -10 19 -20 21 -90 21 -43 0 -81 -3 -84 -7z m113 -83 c0
-27 -3 -30 -30 -30 -27 0 -30 3 -30 30 0 27 3 30 30 30 27 0 30 -3 30 -30z"/>
<path d="M447 803 c-4 -3 -7 -41 -7 -84 0 -70 2 -80 21 -90 23 -12 143 -9 156
4 13 13 16 133 4 156 -10 19 -20 21 -90 21 -43 0 -81 -3 -84 -7z m113 -83 c0
-27 -3 -30 -30 -30 -27 0 -30 3 -30 30 0 27 3 30 30 30 27 0 30 -3 30 -30z"/>
<path d="M697 803 c-4 -3 -7 -41 -7 -84 0 -70 2 -80 21 -90 23 -12 143 -9 156
4 13 13 16 133 4 156 -10 19 -20 21 -90 21 -43 0 -81 -3 -84 -7z m113 -83 c0
-27 -3 -30 -30 -30 -27 0 -30 3 -30 30 0 27 3 30 30 30 27 0 30 -3 30 -30z"/>
<path d="M197 553 c-4 -3 -7 -41 -7 -84 0 -70 2 -80 21 -90 23 -12 143 -9 156
4 13 13 16 133 4 156 -10 19 -20 21 -90 21 -43 0 -81 -3 -84 -7z m113 -83 c0
-27 -3 -30 -30 -30 -27 0 -30 3 -30 30 0 27 3 30 30 30 27 0 30 -3 30 -30z"/>
<path d="M447 553 c-4 -3 -7 -41 -7 -84 0 -70 2 -80 21 -90 23 -12 143 -9 156
4 13 13 16 133 4 156 -10 19 -20 21 -90 21 -43 0 -81 -3 -84 -7z m113 -83 c0
-27 -3 -30 -30 -30 -27 0 -30 3 -30 30 0 27 3 30 30 30 27 0 30 -3 30 -30z"/>
<path d="M697 553 c-4 -3 -7 -41 -7 -84 0 -70 2 -80 21 -90 23 -12 143 -9 156
4 13 13 16 133 4 156 -10 19 -20 21 -90 21 -43 0 -81 -3 -84 -7z m113 -83 c0
-27 -3 -30 -30 -30 -27 0 -30 3 -30 30 0 27 3 30 30 30 27 0 30 -3 30 -30z"/>
<path d="M1340 1470 c0 -28 3 -30 35 -30 32 0 35 2 35 30 0 28 -3 30 -35 30
-32 0 -35 -2 -35 -30z"/>
<path d="M1470 1470 c0 -27 3 -30 30 -30 27 0 30 3 30 30 0 27 -3 30 -30 30
-27 0 -30 -3 -30 -30z"/>
<path d="M1102 1238 c-15 -15 -16 -131 -2 -159 9 -16 22 -19 84 -19 51 0 77 4
85 14 8 9 11 43 9 93 l-3 78 -80 3 c-54 2 -84 -1 -93 -10z m118 -78 c0 -27 -3
-30 -30 -30 -27 0 -30 3 -30 30 0 27 3 30 30 30 27 0 30 -3 30 -30z"/>
<path d="M1352 1238 c-15 -15 -16 -131 -2 -159 9 -16 22 -19 84 -19 51 0 77 4
85 14 8 9 11 43 9 93 l-3 78 -80 3 c-54 2 -84 -1 -93 -10z m118 -78 c0 -27 -3
-30 -30 -30 -27 0 -30 3 -30 30 0 27 3 30 30 30 27 0 30 -3 30 -30z"/>
<path d="M1602 1238 c-15 -15 -16 -131 -2 -159 9 -16 22 -19 84 -19 51 0 77 4
85 14 8 9 11 43 9 93 l-3 78 -80 3 c-54 2 -84 -1 -93 -10z m118 -78 c0 -27 -3
-30 -30 -30 -27 0 -30 3 -30 30 0 27 3 30 30 30 27 0 30 -3 30 -30z"/>
<path d="M1102 988 c-15 -15 -16 -131 -2 -159 9 -16 22 -19 84 -19 51 0 77 4
85 14 8 9 11 43 9 93 l-3 78 -80 3 c-54 2 -84 -1 -93 -10z m118 -78 c0 -27 -3
-30 -30 -30 -27 0 -30 3 -30 30 0 27 3 30 30 30 27 0 30 -3 30 -30z"/>
<path d="M1352 988 c-15 -15 -16 -131 -2 -159 9 -16 22 -19 84 -19 51 0 77 4
85 14 8 9 11 43 9 93 l-3 78 -80 3 c-54 2 -84 -1 -93 -10z m118 -78 c0 -27 -3
-30 -30 -30 -27 0 -30 3 -30 30 0 27 3 30 30 30 27 0 30 -3 30 -30z"/>
<path d="M1602 988 c-15 -15 -16 -131 -2 -159 9 -16 22 -19 84 -19 51 0 77 4
85 14 8 9 11 43 9 93 l-3 78 -80 3 c-54 2 -84 -1 -93 -10z m118 -78 c0 -27 -3
-30 -30 -30 -27 0 -30 3 -30 30 0 27 3 30 30 30 27 0 30 -3 30 -30z"/>
</g>
</svg>
