<?xml version="1.0" standalone="no"?>
<!DOCTYPE svg PUBLIC "-//W3C//DTD SVG 20010904//EN"
 "http://www.w3.org/TR/2001/REC-SVG-20010904/DTD/svg10.dtd">
<svg version="1.0" xmlns="http://www.w3.org/2000/svg"
 width="200.000000pt" height="200.000000pt" viewBox="0 0 200.000000 200.000000"
 preserveAspectRatio="xMidYMid meet">

<g transform="translate(0.000000,200.000000) scale(0.100000,-0.100000)"
fill="#000000" stroke="none">
<path d="M633 1871 c-232 -69 -427 -131 -433 -137 -8 -8 -11 -182 -10 -599 1
-568 1 -590 21 -634 28 -63 73 -108 143 -142 75 -36 146 -45 207 -26 l46 14 5
-61 c12 -146 103 -243 259 -275 56 -12 60 -11 465 99 225 61 424 115 442 121
l32 11 0 593 c0 327 -4 596 -8 599 -5 3 -40 12 -79 20 -138 28 -198 81 -190
163 7 68 -24 77 -125 38 -16 -6 -18 -1 -18 38 0 24 -6 49 -12 55 -7 6 -40 15
-73 21 -80 15 -156 53 -178 90 -9 16 -17 49 -17 73 0 46 -13 69 -39 67 -9 -1
-206 -58 -438 -128z m410 2 c4 -20 5 -38 4 -39 -1 -1 -170 -51 -375 -112
l-374 -109 -19 31 c-10 17 -19 34 -19 37 0 6 736 227 761 228 11 1 18 -10 22
-36z m108 -128 c29 -16 38 -26 29 -29 -8 -3 -165 -46 -349 -96 -324 -88 -336
-90 -388 -80 -29 6 -53 15 -53 19 0 7 672 209 701 210 10 1 36 -10 60 -24z
m169 -90 c0 -28 27 -18 -410 -147 -151 -44 -281 -85 -287 -91 -10 -7 -13 -120
-13 -502 l0 -493 -31 -11 c-18 -6 -34 -11 -35 -11 -2 0 -4 241 -4 535 l0 535
24 6 c14 3 186 50 383 104 197 54 361 99 366 99 4 1 7 -10 7 -24z m157 -140
c-1 -1 -170 -50 -376 -110 l-373 -109 -19 23 c-28 34 -23 49 19 61 20 5 192
56 382 113 l345 103 12 -40 c7 -22 11 -41 10 -41z m-1067 -38 l55 -14 3 -532
c2 -527 2 -531 -18 -531 -57 0 -158 76 -181 137 -5 14 -9 237 -9 518 l0 494
48 -29 c26 -16 72 -36 102 -43z m1206 -75 c-2 -1 -158 -45 -347 -97 -326 -88
-347 -93 -394 -83 -28 5 -53 13 -58 17 -4 4 154 55 350 112 l358 105 47 -25
c25 -14 45 -27 44 -29z m124 -576 l0 -534 -27 -6 c-16 -4 -36 -9 -45 -12 -17
-5 -18 19 -18 415 0 392 -1 421 -18 430 -11 6 -24 6 -35 0 -16 -9 -17 -43 -17
-439 l0 -429 -52 -15 c-230 -66 -559 -152 -563 -148 -3 3 -5 243 -5 533 l0
529 24 6 c14 3 186 50 383 104 197 54 361 99 366 99 4 1 7 -239 7 -533z m-905
333 l55 -12 0 -534 c0 -297 -4 -533 -9 -533 -20 0 -93 31 -121 51 -16 13 -41
45 -55 73 l-25 50 0 492 0 493 50 -34 c27 -18 75 -39 105 -46z"/>
</g>
</svg>
